<?xml version="1.0" encoding="UTF-8"?>
<svg width="110px" height="59px" viewBox="0 0 110 59" version="1.1" xmlns="http://www.w3.org/2000/svg" xmlns:xlink="http://www.w3.org/1999/xlink">
    <!-- Generator: Sketch 62 (91390) - https://sketch.com -->
    <title>Group 38</title>
    <desc>Created with Sketch.</desc>
    <defs>
        <polygon id="path-1" points="0.199512222 0.187799565 9.96692222 0.187799565 9.96692222 13.6692996 0.199512222 13.6692996"></polygon>
        <polygon id="path-3" points="0.211574444 0.045866087 2.55581111 0.045866087 2.55581111 2.39894 0.211574444 2.39894"></polygon>
    </defs>
    <g id="Page-1" stroke="none" stroke-width="1" fill="none" fill-rule="evenodd">
        <g id="Why-Bristol:-Tablet" transform="translate(-376.000000, -3117.000000)">
            <g id="Group-38" transform="translate(376.000000, 3117.000000)">
                <polygon id="Fill-1" fill="#FEFEFE" points="59.2790432 44 58.7732709 35.6984971 55.0939131 44 53.8443884 44 50.1453285 35.6984971 49.5796723 44 47 44 48.0024714 31 50.6985414 31 54.5987695 39.5593706 58.35538 31 60.9975286 31 62 44"></polygon>
                <polygon id="Fill-2" fill="#FEFEFE" points="0 31 0 44 2.6675329 44 2.6675329 38.7008319 7.91608685 38.7008319 7.91608685 36.55372 2.6675329 36.55372 2.6675329 33.1588448 8.33531729 33.1588448 9 31"></polygon>
                <polygon id="Fill-3" fill="#FEFEFE" points="69 44 69 31 78 31 77.3071474 33.1583346 71.7834781 33.1583346 71.7834781 36.1481714 77.2339532 36.1481714 77.2339532 38.2963036 71.7834781 38.2963036 71.7834781 41.7807055 77.8365592 41.7807055 77.8365592 44"></polygon>
                <path d="M20.3231347,39.3293963 L18.3675462,34.2688105 L16.4384228,39.3293963 L20.3231347,39.3293963 Z M22.0102184,44 L21.0243305,41.3716377 L15.7493033,41.3716377 L14.7762625,44 L12,44 L17.1992292,31 L19.7460421,31 L25,44 L22.0102184,44 Z" id="Fill-4" fill="#FEFEFE"></path>
                <g id="Group-37" transform="translate(18.000000, 0.000000)">
                    <path d="M70.77353,37.411977 C72.4944411,37.411977 73.2018189,36.5377509 73.2018189,35.4762639 C73.2018189,34.41529 72.5005744,33.5402943 70.7939744,33.5402943 L69.1423189,33.5402943 L69.1423189,37.411977 L70.77353,37.411977 Z M73.8501633,44.5055726 L70.3567189,39.4805683 L69.1423189,39.4805683 L69.1423189,44.5055726 L66.4206522,44.5055726 L66.4206522,31.4309161 L71.0490189,31.4309161 C74.6643633,31.4309161 75.9390744,33.4556422 75.9390744,35.3749378 C75.9390744,37.1105639 74.8923189,38.439603 73.1923633,39.0352465 L77.1621633,44.5055726 L73.8501633,44.5055726 Z" id="Fill-5" fill="#FEFEFE"></path>
                    <path d="M16.8549367,37.411977 C18.5758478,37.411977 19.2834811,36.5377509 19.2834811,35.4762639 C19.2834811,34.41529 18.5822367,33.5402943 16.8758922,33.5402943 L15.2239811,33.5402943 L15.2239811,37.411977 L16.8549367,37.411977 Z M19.9318256,44.5055726 L16.4383811,39.4805683 L15.2239811,39.4805683 L15.2239811,44.5055726 L12.50257,44.5055726 L12.50257,31.4309161 L17.1309367,31.4309161 C20.7465367,31.4309161 22.0209922,33.4556422 22.0209922,35.3749378 C22.0209922,37.1105639 20.9747478,38.439603 19.2747922,39.0352465 L23.2438256,44.5055726 L19.9318256,44.5055726 Z" id="Fill-7" fill="#FEFEFE"></path>
                    <g id="Group-11" transform="translate(82.033333, 31.039130)">
                        <mask id="mask-2" fill="white">
                            <use xlink:href="#path-1"></use>
                        </mask>
                        <g id="Clip-10"></g>
                        <path d="M5.06605667,13.6692996 C3.32061222,13.6692996 1.86522333,13.2575822 0.199512222,12.1691604 L1.40139,10.1169865 C2.67482333,10.9704343 3.62549,11.3880517 5.06605667,11.3880517 C6.49256778,11.3880517 7.27814556,10.8208822 7.27814556,9.84840826 C7.27814556,8.93801261 6.39724556,8.57169957 5.89073444,8.38392565 C5.38447889,8.19589522 4.20406778,7.76006478 3.37555667,7.43838652 C1.68582333,6.78476913 0.833545556,5.61785174 0.833545556,3.98945174 C0.833545556,2.23561261 2.06430111,0.187799565 5.53219,0.187799565 C6.67963444,0.187799565 8.11687889,0.491521304 9.04863444,0.868864783 L9.04863444,3.40124739 C8.00494556,2.78841696 6.75119,2.34668652 5.45245667,2.34668652 C4.55239,2.34668652 3.48340111,2.61629087 3.48340111,3.74549957 C3.48340111,4.59869087 4.27281222,4.95423 4.75402333,5.14482565 C5.29120111,5.35722565 6.48464556,5.79587783 7.28427889,6.09369957 C9.05757889,6.75398652 9.96710111,7.91885174 9.96710111,9.56289957 C9.96710111,11.6071213 8.45165667,13.6692996 5.06605667,13.6692996" id="Fill-9" fill="#FEFEFE" mask="url(#mask-2)"></path>
                    </g>
                    <polygon id="Fill-12" fill="#FEFEFE" points="68.7460544 58.8872587 68.7460544 51.6966978 73.6005878 51.6966978 73.2461322 52.8189804 70.1909656 52.8189804 70.1909656 54.5615326 73.1942544 54.5615326 73.1942544 55.6943326 70.1909656 55.6943326 70.1909656 57.7318848 73.5262211 57.7318848 73.5262211 58.8872587"></polygon>
                    <polygon id="Fill-14" fill="#FEFEFE" points="-0.000127777778 58.8872587 -0.000127777778 53.8130022 -0.000127777778 51.6966978 1.44452778 51.6966978 1.44452778 58.8872587"></polygon>
                    <polygon id="Fill-16" fill="#FEFEFE" points="9.89628667 58.8872587 6.46852 53.999237 6.46852 58.8872587 5.10410889 58.8872587 5.10410889 51.6966978 6.38929778 51.6966978 9.75777556 56.4849326 9.75777556 51.6966978 11.1216756 51.6966978 11.1216756 58.8872587"></polygon>
                    <polygon id="Fill-18" fill="#FEFEFE" points="54.8212667 58.8872587 51.3914556 53.999237 51.3914556 58.8872587 50.0278111 58.8872587 50.0278111 51.6966978 51.313 51.6966978 54.6819889 56.4849326 54.6819889 51.6966978 56.0456333 51.6966978 56.0456333 58.8872587"></polygon>
                    <path d="M27.2262756,51.6966465 L28.6701644,51.6966465 L28.6701644,56.0344291 C28.6701644,56.9963857 28.5216867,57.6533378 28.0284644,58.1958813 C27.5467422,58.7284204 26.8370644,58.9995639 25.7703756,58.9995639 C24.7156978,58.9995639 23.9934978,58.7394509 23.5122867,58.1958813 C23.0195756,57.6643683 22.8593422,57.0079291 22.8593422,56.0454596 L22.8593422,51.6966465 L24.3037422,51.6966465 L24.3037422,56.1126683 C24.3037422,56.7360161 24.3719756,57.0189596 24.6014644,57.2911291 C24.8419422,57.5735596 25.2196533,57.743377 25.7591311,57.743377 C26.3095978,57.743377 26.6873089,57.5735596 26.9277867,57.2911291 C27.1572756,57.0189596 27.2262756,56.7360161 27.2262756,56.1126683 L27.2262756,51.6966465 Z" id="Fill-20" fill="#FEFEFE"></path>
                    <path d="M35.5102367,53.0228383 C35.2577478,52.8525078 34.9830256,52.7852991 34.5812922,52.7852991 L33.7563589,52.7852991 L33.7563589,55.0265296 L34.5697922,55.0265296 C34.9830256,55.0265296 35.2577478,54.9582948 35.5102367,54.7884774 C35.7622144,54.61866 35.9459589,54.2903122 35.9459589,53.9060426 C35.9459589,53.520747 35.7622144,53.1926557 35.5102367,53.0228383 L35.5102367,53.0228383 Z M36.2610589,58.8871817 L34.3857922,56.0905817 L33.7563589,56.0905817 L33.7563589,58.8871817 L32.3114478,58.8871817 L32.3114478,51.6966209 L34.7415256,51.6966209 C35.4757367,51.6966209 36.1289367,51.8438643 36.5764144,52.1837557 C37.0456144,52.5459643 37.3783478,53.113647 37.3783478,53.8490948 C37.3783478,54.8679991 36.7706367,55.5700991 35.8879478,55.86356 L38.0088033,58.8871817 L36.2610589,58.8871817 Z" id="Fill-22" fill="#FEFEFE"></path>
                    <path d="M17.2093156,51.5829048 C15.2612156,51.5829048 14.5957489,52.7282743 14.5957489,53.6566265 C14.5957489,54.7093917 15.2722044,55.2534743 16.0056489,55.5359048 C16.2006378,55.61517 17.1295822,55.9427483 17.4155489,56.0563874 C17.7025378,56.16977 18.2412489,56.3737048 18.2412489,56.9172743 C18.2412489,57.4603309 17.8052711,57.7999657 16.9460933,57.7999657 C16.0858933,57.7999657 15.5198378,57.5275396 14.8881044,57.1106917 L14.2525378,58.1952657 C14.9926267,58.6782961 15.8464378,58.9999743 16.9460933,58.9999743 C18.9289489,58.9999743 19.6741489,57.7889352 19.6741489,56.7590004 C19.6741489,55.9542917 19.27216,55.2645048 18.1840044,54.8681787 C17.97726,54.7884004 17.0600711,54.4603091 16.7968489,54.357957 C16.5331156,54.245857 16.0056489,54.0529526 16.0056489,53.5209265 C16.0056489,52.9886439 16.4186267,52.7162178 17.1633156,52.7162178 C17.82086,52.7162178 18.5121378,52.9116874 19.1543489,53.2718439 L19.1543489,51.9481917 C18.6854044,51.7627265 17.8798933,51.5829048 17.2093156,51.5829048" id="Fill-24" fill="#FEFEFE"></path>
                    <path d="M62.9102133,51.5829048 C61.0104133,51.5829048 59.3314133,52.9096352 59.3314133,55.2868222 C59.3314133,57.6642657 60.8384244,58.9999743 62.8532244,58.9999743 C63.8501467,58.9999743 64.6835133,58.7388352 65.4238578,58.3035178 L64.8808022,57.120183 C64.3466911,57.4903439 63.7139356,57.7094135 62.9562133,57.7094135 C61.6838022,57.7094135 60.7977911,56.7359135 60.7977911,55.2645048 C60.7977911,53.7923265 61.7183022,52.8293439 62.9794689,52.8293439 C63.8555133,52.8293439 64.5363133,53.0458483 65.1194911,53.4011309 L65.1194911,51.9746135 C64.5028356,51.7352787 63.8685467,51.5829048 62.9102133,51.5829048" id="Fill-26" fill="#FEFEFE"></path>
                    <path d="M42.6406967,56.2719426 L43.6764633,53.3529817 L44.7275633,56.2719426 L42.6406967,56.2719426 Z M45.6388744,58.8871817 L47.1752744,58.8871817 L44.3861411,51.6966209 L43.0799967,51.6966209 L40.3207633,58.8871817 L41.7416522,58.8871817 L42.25583,57.4162861 L45.1172856,57.4162861 L45.6388744,58.8871817 Z" id="Fill-28" fill="#FEFEFE"></path>
                    <path d="M36.76941,5.5058287 C36.5516767,5.95628087 34.5634544,10.1260417 33.4101322,14.5715635 L40.1445322,14.5715635 C38.9572211,9.89337652 36.8171989,5.51968087 36.7908767,5.46606783 C36.7898544,5.46837652 36.7814211,5.48325478 36.76941,5.5058287" id="Fill-30" fill="#FEFEFE"></path>
                    <path d="M60.4472456,24.9927078 L59.1814789,24.4383643 C57.79049,23.8193774 56.9203233,23.4589643 52.3852344,22.2150904 C51.5856011,22.8679383 50.77549,23.52566 49.7113567,24.263673 C49.3919122,24.4853078 48.9168344,24.7951861 48.6163011,24.9927078 L47.7254344,24.9927078 C51.8171344,22.374647 55.2691789,18.96496 55.2691789,18.96496 L55.2671344,18.96496 L55.2691789,18.9639339 C55.2691789,18.9639339 51.9605011,18.4909078 48.0783567,18.4909078 C47.2720789,18.4909078 46.4420344,18.5114296 45.6109678,18.5606817 C47.4093122,14.0279426 48.2365456,9.18789043 48.2365456,9.18789043 L48.2355233,9.18891652 L48.2355233,9.18660783 C48.2355233,9.18660783 43.9084567,11.4799122 40.1530678,14.5715122 L44.3199011,14.5715122 C44.0607678,20.3340165 42.1494678,25.2389687 36.7922567,27.8370209 C31.4350456,25.2389687 29.5237456,20.3340165 29.2648678,14.5715122 L33.4023122,14.5715122 C29.6709456,11.4799122 25.3561456,9.18686435 25.3561456,9.18686435 L25.3569122,9.18891652 L25.3551233,9.18789043 C25.3551233,9.18789043 26.1823567,14.0279426 27.9589789,18.5606817 C27.1276567,18.5114296 26.2958233,18.4909078 25.48929,18.4909078 C21.6020344,18.4909078 18.2869678,18.9639339 18.2869678,18.9639339 L18.28799,18.965473 L18.2869678,18.96496 C18.2869678,18.96496 21.7880789,22.37516 25.8667456,24.9927078 C25.8667456,24.9927078 25.53299,24.9973252 24.9761344,24.9973252 C24.6761122,24.7998035 24.2010344,24.4853078 23.8813344,24.263673 C22.8172011,23.52566 22.00709,22.8679383 21.2077122,22.2150904 C16.6723678,23.4589643 15.8024567,23.8193774 14.4114678,24.4383643 L13.1375233,24.9932209 C13.1400789,19.77916 14.8167789,14.9609122 17.65779,11.0445948 C17.6588122,11.0458774 19.6437122,14.3916904 22.5322567,18.06226 C23.4448456,18.0124948 24.4479011,17.9778643 25.48929,17.9778643 C26.0755344,17.9778643 26.6492567,17.9888948 27.2030456,18.0101861 C26.6331567,16.4615643 26.1706011,14.9039643 25.8107789,13.5408078 C21.4397567,11.9100991 17.6933122,11.0528035 17.6588122,11.0448513 L17.6583011,11.0443383 C20.5637122,7.03900783 24.6871011,3.98101217 29.4815789,2.41853826 C29.4787678,2.4485513 29.1378567,6.31972087 29.32339,10.9694339 C30.5015011,11.7356643 31.8319233,12.6604252 33.1209456,13.6836904 C33.5694456,12.0917165 34.1091789,10.5554078 34.6172233,9.23868174 C32.0381567,5.35160783 29.4918011,2.42982522 29.4818344,2.41853826 C31.7838789,1.66795565 34.2415567,1.2626513 36.7927678,1.2626513 C39.3429567,1.2626513 41.79859,1.66744261 44.0996122,2.41699913 C44.1001233,2.41699913 41.4116789,5.57991217 38.9685678,9.26818174 C39.4702233,10.5782383 40.0007567,12.1035165 40.4380122,13.683947 C41.7446678,12.6527296 43.0929789,11.7212991 44.2823344,10.9512209 C44.45739,6.51442087 44.10319,2.41956435 44.1042122,2.41853826 C48.8984344,3.98101217 53.0220789,7.03823826 55.9272344,11.0433122 L55.9272344,11.0438252 C55.9272344,11.0438252 55.9267233,11.0440817 55.9262122,11.0440817 C55.8656456,11.0581904 52.1557456,11.8864991 47.78089,13.5223383 C47.41749,14.8895991 46.9493122,16.4543817 46.3702233,18.0099296 C46.9227344,17.9888948 47.4941567,17.9778643 48.0783567,17.9778643 C49.12639,17.9778643 50.1366011,18.0127513 51.0535344,18.0632861 C53.94259,14.3927165 55.9262122,11.0461339 55.92749,11.0438252 C58.7692678,14.9614252 60.4462233,19.7765948 60.4477567,24.9927078 L60.4472456,24.9927078 Z M36.7922567,0.0716208696 C23.1578567,0.0716208696 11.9522567,11.2577643 11.9522567,25.0063035 L11.9522567,26.1942557 L32.4335011,26.1942557 C33.6420233,27.3829774 35.07339,28.3764861 36.7922567,29.1470774 C38.5113789,28.3764861 39.9430011,27.3829774 41.1502456,26.1942557 L61.6327678,26.1942557 L61.6327678,25.0063035 C61.6327678,11.2577643 50.4261456,0.0716208696 36.7922567,0.0716208696 L36.7922567,0.0716208696 Z" id="Fill-32" fill="#FEFEFE"></path>
                    <g id="Group-36" transform="translate(89.444444, 26.678261)">
                        <mask id="mask-4" fill="white">
                            <use xlink:href="#path-3"></use>
                        </mask>
                        <g id="Clip-35"></g>
                        <path d="M1.39045222,0.702305217 L1.17936333,0.702305217 L1.17936333,1.18790087 L1.39045222,1.18790087 C1.55324111,1.18790087 1.65444111,1.11068783 1.65444111,0.942666087 C1.65853,0.780031304 1.55324111,0.702305217 1.39045222,0.702305217 L1.39045222,0.702305217 Z M1.69890778,1.89718348 L1.37409667,1.35079217 L1.18319667,1.35079217 L1.18319667,1.89718348 L0.972107778,1.89718348 L0.972107778,0.539413913 L1.41038556,0.539413913 C1.65853,0.539413913 1.87421889,0.665622609 1.87421889,0.942666087 C1.87421889,1.22432696 1.65060778,1.31410957 1.59361889,1.32642261 L1.94245222,1.89718348 L1.69890778,1.89718348 Z M1.38636333,0.204653043 C0.816985556,0.204653043 0.37513,0.653566087 0.37513,1.22047913 C0.37513,1.79124 0.816985556,2.23964 1.38636333,2.23964 C1.95497444,2.23964 2.39759667,1.79124 2.39759667,1.22047913 C2.39759667,0.653566087 1.95497444,0.204653043 1.38636333,0.204653043 L1.38636333,0.204653043 Z M1.38636333,2.39894 C0.73163,2.39894 0.211574444,1.88102261 0.211574444,1.22432696 C0.211574444,0.563783478 0.73163,0.045866087 1.38636333,0.045866087 C2.04033,0.045866087 2.55604111,0.563783478 2.55604111,1.22047913 C2.55604111,1.88102261 2.04033,2.39894 1.38636333,2.39894 L1.38636333,2.39894 Z" id="Fill-34" fill="#FEFEFE" mask="url(#mask-4)"></path>
                    </g>
                </g>
            </g>
        </g>
    </g>
</svg>